<?xml version="1.0" encoding="UTF-8"?>
<svg width="20px" height="17px" viewBox="0 0 20 17" version="1.1" xmlns="http://www.w3.org/2000/svg" xmlns:xlink="http://www.w3.org/1999/xlink">
    <!-- Generator: Sketch 63.1 (92452) - https://sketch.com -->
    <title>back_arrow</title>
    <desc>Created with Sketch.</desc>
    <g id="back_arrow" stroke="none" stroke-width="1" fill="none" fill-rule="evenodd">
        <path d="M0.984902428,7.46563257 L7.56228469,0.557912799 C7.94363354,0.157411361 8.57744844,0.141885128 8.97794988,0.523233986 C9.26876666,0.800143475 9.36602664,1.22400506 9.22502638,1.6 L8.104864,4.58705401 C7.84306833,5.28516512 8.19677187,6.06332331 8.89488298,6.32511897 C8.99670696,6.36330355 9.10277176,6.38904487 9.21077138,6.40178329 L18.1591106,7.45722843 C18.7350174,7.5251559 19.1468161,8.04708673 19.0788886,8.62299357 C19.0219843,9.10544334 18.6415604,9.48586724 18.1591106,9.54277157 L9.21077138,10.5982167 C8.47031974,10.685552 7.94086436,11.3566059 8.02819968,12.0970576 C8.04093809,12.2050572 8.06667942,12.311122 8.104864,12.412946 L9.22502638,15.4 C9.41920639,15.9178054 9.15685614,16.4949837 8.6390507,16.6891637 C8.26305576,16.830164 7.83919418,16.732904 7.56228469,16.4420872 L0.984902428,9.53436743 C0.433324725,8.9550877 0.433324725,8.0449123 0.984902428,7.46563257 Z" id="Path-2" fill="#FFFFFF"></path>
    </g>
</svg>